<svg width="262" height="262" viewBox="0 0 262 262" fill="none" xmlns="http://www.w3.org/2000/svg">
<g clip-path="url(#clip0_2240_149)">
<g filter="url(#filter0_d_2240_149)">
<path d="M36 2.05659e-05C16.1178 2.23752e-05 0 16.1178 0 36V226C0 245.882 16.1178 262 36 262H226C245.882 262 262 245.882 262 226V36C262 16.1178 245.882 1.46671e-06 226 3.27598e-06L36 2.05659e-05Z" fill="url(#paint0_linear_2240_149)"/>
</g>
<path d="M43 201L65.0431 222.5L115 179.5" stroke="#508CEE" stroke-width="18" stroke-linecap="round"/>
<g filter="url(#filter1_i_2240_149)">
<path d="M80 0H182V11C182 17.6274 176.627 23 170 23H92C85.3726 23 80 17.6274 80 11V0Z" fill="white"/>
</g>
</g>
<defs>
<filter id="filter0_d_2240_149" x="-20" y="-12" width="302" height="302" filterUnits="userSpaceOnUse" color-interpolation-filters="sRGB">
<feFlood flood-opacity="0" result="BackgroundImageFix"/>
<feColorMatrix in="SourceAlpha" type="matrix" values="0 0 0 0 0 0 0 0 0 0 0 0 0 0 0 0 0 0 127 0" result="hardAlpha"/>
<feOffset dy="8"/>
<feGaussianBlur stdDeviation="10"/>
<feComposite in2="hardAlpha" operator="out"/>
<feColorMatrix type="matrix" values="0 0 0 0 0 0 0 0 0 0 0 0 0 0 0 0 0 0 0.3 0"/>
<feBlend mode="normal" in2="BackgroundImageFix" result="effect1_dropShadow_2240_149"/>
<feBlend mode="normal" in="SourceGraphic" in2="effect1_dropShadow_2240_149" result="shape"/>
</filter>
<filter id="filter1_i_2240_149" x="80" y="-4" width="102" height="27" filterUnits="userSpaceOnUse" color-interpolation-filters="sRGB">
<feFlood flood-opacity="0" result="BackgroundImageFix"/>
<feBlend mode="normal" in="SourceGraphic" in2="BackgroundImageFix" result="shape"/>
<feColorMatrix in="SourceAlpha" type="matrix" values="0 0 0 0 0 0 0 0 0 0 0 0 0 0 0 0 0 0 127 0" result="hardAlpha"/>
<feOffset dy="-4"/>
<feGaussianBlur stdDeviation="6"/>
<feComposite in2="hardAlpha" operator="arithmetic" k2="-1" k3="1"/>
<feColorMatrix type="matrix" values="0 0 0 0 0 0 0 0 0 0 0 0 0 0 0 0 0 0 0.32 0"/>
<feBlend mode="normal" in2="shape" result="effect1_innerShadow_2240_149"/>
</filter>
<linearGradient id="paint0_linear_2240_149" x1="131" y1="0" x2="131" y2="262" gradientUnits="userSpaceOnUse">
<stop stop-color="#474358"/>
<stop offset="1" stop-color="#1D1B27"/>
</linearGradient>
<clipPath id="clip0_2240_149">
<rect width="262" height="262" rx="36" fill="white"/>
</clipPath>
</defs>
</svg>
